<?xml version="1.0" encoding="UTF-8"?>
<svg xmlns="http://www.w3.org/2000/svg" version="1.1" viewBox="0 0 48 64.8">
  <!-- Generator: Adobe Illustrator 29.8.1, SVG Export Plug-In . SVG Version: 2.1.1 Build 2)  -->
  <defs>
    <style>
      .st0 {
        fill: #4a90d9;
      }

      .st1 {
        fill: #d94452;
      }
    </style>
  </defs>
  <g id="Layer_3">
    <path class="st0" d="M43.6,20.2h-1.6c0,0-18,0-18,0v7.9h11.3c-.8,2.2-2.2,4.1-4.1,5.5,0,0,0,0,0,0l6.2,5.2c-.4.4,6.6-4.8,6.6-14.7s-.1-2.6-.4-3.9Z"/>
  </g>
  <g id="Layer_2">
    <rect class="st1" x="24" y="20" width="8.8" height="37.8"/>
    <rect class="st1" x="24" y="50" width="20" height="7.8"/>
  </g>
  <g id="Layer_1">
    <path class="st0" d="M43.6,20.1h0c0,0-1.9,0-1.9,0h-17.7v8h11.3c-1.6,4.7-6.1,8-11.3,8s-12-5.4-12-12,5.4-12,12-12,5.8,1.2,8,3l5.7-5.7c-3.6-3.3-8.4-5.4-13.6-5.4C13,4,4,13,4,24s9,20,20,20,20-9,20-20-.1-2.6-.4-3.9Z"/>
    <path class="st0" d="M6.3,14.7l6.6,4.8c1.8-4.4,6.1-7.5,11.1-7.5s5.8,1.2,8,3l5.7-5.7c-3.6-3.3-8.4-5.4-13.6-5.4-7.7,0-14.3,4.3-17.7,10.7Z"/>
    <path class="st0" d="M24,44c5.2,0,9.9-2,13.4-5.2l-6.2-5.2c-2,1.5-4.5,2.4-7.2,2.4-5.2,0-9.6-3.3-11.3-7.9l-6.5,5c3.3,6.5,10,10.9,17.8,10.9Z"/>
    <rect class="st1" x="24" y="20" width="8.8" height="8.1"/>
  </g>
</svg>